<?xml version="1.0" encoding="utf-8" standalone="no"?>
<!DOCTYPE svg PUBLIC "-//W3C//DTD SVG 1.1//EN"
  "http://www.w3.org/Graphics/SVG/1.1/DTD/svg11.dtd">
<!-- Created with matplotlib (https://matplotlib.org/) -->
<svg height="357.081424pt" version="1.1" viewBox="0 0 724.513625 357.081424" width="724.513625pt" xmlns="http://www.w3.org/2000/svg" xmlns:xlink="http://www.w3.org/1999/xlink">
 <metadata>
  <rdf:RDF xmlns:cc="http://creativecommons.org/ns#" xmlns:dc="http://purl.org/dc/elements/1.1/" xmlns:rdf="http://www.w3.org/1999/02/22-rdf-syntax-ns#">
   <cc:Work>
    <dc:type rdf:resource="http://purl.org/dc/dcmitype/StillImage"/>
    <dc:date>2021-12-04T20:26:20.650469</dc:date>
    <dc:format>image/svg+xml</dc:format>
    <dc:creator>
     <cc:Agent>
      <dc:title>Matplotlib v3.3.4, https://matplotlib.org/</dc:title>
     </cc:Agent>
    </dc:creator>
   </cc:Work>
  </rdf:RDF>
 </metadata>
 <defs>
  <style type="text/css">*{stroke-linecap:butt;stroke-linejoin:round;}</style>
 </defs>
 <g id="figure_1">
  <g id="patch_1">
   <path d="M 0 357.081424 
L 724.513625 357.081424 
L 724.513625 0 
L 0 0 
z
" style="fill:#ffffff;"/>
  </g>
  <g id="axes_1">
   <g id="patch_2">
    <path d="M 42.325 253.366125 
L 377.125 253.366125 
L 377.125 35.926125 
L 42.325 35.926125 
z
" style="fill:#eaeaf2;"/>
   </g>
   <g id="matplotlib.axis_1">
    <g id="xtick_1">
     <g id="line2d_1">
      <path clip-path="url(#pb9d4274ecd)" d="M 89.581459 253.366125 
L 89.581459 35.926125 
" style="fill:none;stroke:#ffffff;stroke-linecap:round;stroke-width:0.8;"/>
     </g>
     <g id="text_1">
      <!-- Lowest 25%  -->
      <g style="fill:#262626;" transform="translate(64.637936 315.197284)rotate(-45)scale(0.1 -0.1)">
       <defs>
        <path d="M 5.515625 0 
L 5.515625 5.171875 
L 14.796875 5.171875 
L 14.796875 67.671875 
L 5.515625 67.671875 
L 5.515625 72.90625 
L 33.984375 72.90625 
L 33.984375 67.671875 
L 24.703125 67.671875 
L 24.703125 6 
L 58.015625 6 
L 58.015625 18.21875 
L 64.015625 18.21875 
L 64.015625 0 
z
" id="DejaVuSerif-76"/>
        <path d="M 30.078125 3.421875 
Q 37.3125 3.421875 40.984375 9.125 
Q 44.671875 14.84375 44.671875 25.984375 
Q 44.671875 37.109375 40.984375 42.796875 
Q 37.3125 48.484375 30.078125 48.484375 
Q 22.859375 48.484375 19.171875 42.796875 
Q 15.484375 37.109375 15.484375 25.984375 
Q 15.484375 14.84375 19.1875 9.125 
Q 22.90625 3.421875 30.078125 3.421875 
z
M 30.078125 -1.421875 
Q 18.75 -1.421875 11.859375 6.078125 
Q 4.984375 13.578125 4.984375 25.984375 
Q 4.984375 38.375 11.84375 45.84375 
Q 18.703125 53.328125 30.078125 53.328125 
Q 41.453125 53.328125 48.3125 45.84375 
Q 55.171875 38.375 55.171875 25.984375 
Q 55.171875 13.578125 48.3125 6.078125 
Q 41.453125 -1.421875 30.078125 -1.421875 
z
" id="DejaVuSerif-111"/>
        <path d="M 48 51.90625 
L 61.28125 11.375 
L 73 46.6875 
L 65.484375 46.6875 
L 65.484375 51.90625 
L 84.28125 51.90625 
L 84.28125 46.6875 
L 78.515625 46.6875 
L 63.09375 0 
L 55.609375 0 
L 42.828125 38.8125 
L 29.984375 0 
L 22.796875 0 
L 7.421875 46.6875 
L 1.609375 46.6875 
L 1.609375 51.90625 
L 25.09375 51.90625 
L 25.09375 46.6875 
L 16.703125 46.6875 
L 28.328125 11.375 
L 41.703125 51.90625 
z
" id="DejaVuSerif-119"/>
        <path d="M 54.203125 25 
L 15.484375 25 
L 15.484375 24.609375 
Q 15.484375 14.109375 19.4375 8.765625 
Q 23.390625 3.421875 31.109375 3.421875 
Q 37.015625 3.421875 40.796875 6.515625 
Q 44.578125 9.625 46.09375 15.71875 
L 53.328125 15.71875 
Q 51.171875 7.171875 45.375 2.875 
Q 39.59375 -1.421875 30.171875 -1.421875 
Q 18.796875 -1.421875 11.890625 6.078125 
Q 4.984375 13.578125 4.984375 25.984375 
Q 4.984375 38.28125 11.765625 45.796875 
Q 18.5625 53.328125 29.59375 53.328125 
Q 41.359375 53.328125 47.65625 46.0625 
Q 53.953125 38.8125 54.203125 25 
z
M 43.609375 30.171875 
Q 43.3125 39.265625 39.765625 43.875 
Q 36.234375 48.484375 29.59375 48.484375 
Q 23.390625 48.484375 19.828125 43.84375 
Q 16.265625 39.203125 15.484375 30.171875 
z
" id="DejaVuSerif-101"/>
        <path d="M 5.609375 2.875 
L 5.609375 14.984375 
L 10.796875 14.984375 
Q 10.984375 9.1875 14.421875 6.296875 
Q 17.875 3.421875 24.609375 3.421875 
Q 30.671875 3.421875 33.84375 5.6875 
Q 37.015625 7.953125 37.015625 12.3125 
Q 37.015625 15.71875 34.6875 17.8125 
Q 32.375 19.921875 24.90625 22.3125 
L 18.40625 24.515625 
Q 11.71875 26.65625 8.71875 29.875 
Q 5.71875 33.109375 5.71875 38.09375 
Q 5.71875 45.21875 10.9375 49.265625 
Q 16.15625 53.328125 25.390625 53.328125 
Q 29.5 53.328125 34.03125 52.25 
Q 38.578125 51.171875 43.40625 49.125 
L 43.40625 37.796875 
L 38.234375 37.796875 
Q 38.03125 42.828125 34.703125 45.65625 
Q 31.390625 48.484375 25.6875 48.484375 
Q 20.015625 48.484375 17.109375 46.484375 
Q 14.203125 44.484375 14.203125 40.484375 
Q 14.203125 37.203125 16.40625 35.21875 
Q 18.609375 33.25 25.203125 31.203125 
L 32.328125 29 
Q 39.703125 26.703125 42.9375 23.265625 
Q 46.1875 19.828125 46.1875 14.40625 
Q 46.1875 7.03125 40.546875 2.796875 
Q 34.90625 -1.421875 25 -1.421875 
Q 19.96875 -1.421875 15.1875 -0.34375 
Q 10.40625 0.734375 5.609375 2.875 
z
" id="DejaVuSerif-115"/>
        <path d="M 10.796875 46.6875 
L 2.875 46.6875 
L 2.875 51.90625 
L 10.796875 51.90625 
L 10.796875 68.015625 
L 19.828125 68.015625 
L 19.828125 51.90625 
L 36.71875 51.90625 
L 36.71875 46.6875 
L 19.828125 46.6875 
L 19.828125 13.71875 
Q 19.828125 7.125 21.09375 5.265625 
Q 22.359375 3.421875 25.78125 3.421875 
Q 29.296875 3.421875 30.90625 5.484375 
Q 32.515625 7.5625 32.625 12.203125 
L 39.40625 12.203125 
Q 39.015625 5.125 35.546875 1.84375 
Q 32.078125 -1.421875 25 -1.421875 
Q 17.234375 -1.421875 14.015625 2.015625 
Q 10.796875 5.46875 10.796875 13.71875 
z
" id="DejaVuSerif-116"/>
        <path id="DejaVuSerif-32"/>
        <path d="M 12.796875 55.515625 
L 7.328125 55.515625 
L 7.328125 68.5 
Q 12.546875 71.296875 17.84375 72.75 
Q 23.140625 74.21875 28.21875 74.21875 
Q 39.59375 74.21875 46.1875 68.703125 
Q 52.78125 63.1875 52.78125 53.71875 
Q 52.78125 43.015625 37.84375 28.125 
Q 36.671875 27 36.078125 26.421875 
L 17.671875 8.015625 
L 48.09375 8.015625 
L 48.09375 17 
L 53.8125 17 
L 53.8125 0 
L 6.78125 0 
L 6.78125 5.328125 
L 28.90625 27.390625 
Q 36.234375 34.71875 39.359375 40.84375 
Q 42.484375 46.96875 42.484375 53.71875 
Q 42.484375 61.078125 38.640625 65.234375 
Q 34.8125 69.390625 28.078125 69.390625 
Q 21.09375 69.390625 17.28125 65.921875 
Q 13.484375 62.453125 12.796875 55.515625 
z
" id="DejaVuSerif-50"/>
        <path d="M 50.296875 72.90625 
L 50.296875 64.890625 
L 16.890625 64.890625 
L 16.890625 44 
Q 19.4375 45.75 22.828125 46.625 
Q 26.21875 47.515625 30.421875 47.515625 
Q 42.234375 47.515625 49.0625 40.96875 
Q 55.90625 34.421875 55.90625 23.09375 
Q 55.90625 11.53125 49 5.046875 
Q 42.09375 -1.421875 29.59375 -1.421875 
Q 24.5625 -1.421875 19.28125 -0.1875 
Q 14.015625 1.03125 8.5 3.515625 
L 8.5 17.671875 
L 14.015625 17.671875 
Q 14.453125 10.75 18.421875 7.078125 
Q 22.40625 3.421875 29.59375 3.421875 
Q 37.3125 3.421875 41.453125 8.5 
Q 45.609375 13.578125 45.609375 23.09375 
Q 45.609375 32.5625 41.484375 37.609375 
Q 37.359375 42.671875 29.59375 42.671875 
Q 25.203125 42.671875 21.84375 41.109375 
Q 18.5 39.546875 15.921875 36.28125 
L 11.71875 36.28125 
L 11.71875 72.90625 
z
" id="DejaVuSerif-53"/>
        <path d="M 22.40625 69.671875 
Q 18.109375 69.671875 15.6875 65.625 
Q 13.28125 61.578125 13.28125 54.296875 
Q 13.28125 47.125 15.75 43.015625 
Q 18.21875 38.921875 22.40625 38.921875 
Q 26.5625 38.921875 28.96875 43 
Q 31.390625 47.078125 31.390625 54.296875 
Q 31.390625 61.53125 28.96875 65.59375 
Q 26.5625 69.671875 22.40625 69.671875 
z
M 72.703125 33.890625 
Q 68.453125 33.890625 66.03125 29.78125 
Q 63.625 25.6875 63.625 18.40625 
Q 63.625 11.234375 66.0625 7.15625 
Q 68.5 3.078125 72.703125 3.078125 
Q 76.90625 3.078125 79.296875 7.15625 
Q 81.6875 11.234375 81.6875 18.40625 
Q 81.6875 25.640625 79.265625 29.765625 
Q 76.859375 33.890625 72.703125 33.890625 
z
M 72.703125 38.28125 
Q 80.421875 38.28125 84.953125 32.90625 
Q 89.5 27.546875 89.5 18.40625 
Q 89.5 9.28125 84.9375 3.921875 
Q 80.375 -1.421875 72.703125 -1.421875 
Q 64.890625 -1.421875 60.34375 3.921875 
Q 55.8125 9.28125 55.8125 18.40625 
Q 55.8125 27.59375 60.375 32.9375 
Q 64.9375 38.28125 72.703125 38.28125 
z
M 66.609375 74.21875 
L 74.03125 74.21875 
L 28.421875 -1.421875 
L 21 -1.421875 
z
M 22.3125 74.21875 
Q 30.03125 74.21875 34.609375 68.875 
Q 39.203125 63.53125 39.203125 54.390625 
Q 39.203125 45.171875 34.640625 39.84375 
Q 30.078125 34.515625 22.3125 34.515625 
Q 14.546875 34.515625 10.03125 39.859375 
Q 5.515625 45.21875 5.515625 54.390625 
Q 5.515625 63.484375 10.046875 68.84375 
Q 14.59375 74.21875 22.3125 74.21875 
z
" id="DejaVuSerif-37"/>
       </defs>
       <use xlink:href="#DejaVuSerif-76"/>
       <use x="66.40625" xlink:href="#DejaVuSerif-111"/>
       <use x="126.611328" xlink:href="#DejaVuSerif-119"/>
       <use x="212.207031" xlink:href="#DejaVuSerif-101"/>
       <use x="271.386719" xlink:href="#DejaVuSerif-115"/>
       <use x="322.705078" xlink:href="#DejaVuSerif-116"/>
       <use x="362.890625" xlink:href="#DejaVuSerif-32"/>
       <use x="394.677734" xlink:href="#DejaVuSerif-50"/>
       <use x="458.300781" xlink:href="#DejaVuSerif-53"/>
       <use x="521.923828" xlink:href="#DejaVuSerif-37"/>
       <use x="616.943359" xlink:href="#DejaVuSerif-32"/>
      </g>
      <!-- (most affluent) -->
      <g style="fill:#262626;" transform="translate(68.969076 326.702243)rotate(-45)scale(0.1 -0.1)">
       <defs>
        <path d="M 31.890625 -15.578125 
Q 20.015625 -10.25 13.953125 1.296875 
Q 7.90625 12.84375 7.90625 30.171875 
Q 7.90625 47.5625 13.953125 59.109375 
Q 20.015625 70.65625 31.890625 75.984375 
L 31.890625 71.1875 
Q 24.359375 66.015625 21.09375 56.609375 
Q 17.828125 47.21875 17.828125 30.171875 
Q 17.828125 13.1875 21.09375 3.78125 
Q 24.359375 -5.609375 31.890625 -10.796875 
z
" id="DejaVuSerif-40"/>
        <path d="M 51.8125 41.796875 
Q 54.390625 47.515625 58.421875 50.421875 
Q 62.453125 53.328125 67.828125 53.328125 
Q 75.984375 53.328125 79.984375 48.265625 
Q 83.984375 43.21875 83.984375 33.015625 
L 83.984375 5.171875 
L 92.09375 5.171875 
L 92.09375 0 
L 67.1875 0 
L 67.1875 5.171875 
L 75 5.171875 
L 75 31.984375 
Q 75 39.9375 72.65625 43.3125 
Q 70.3125 46.6875 64.890625 46.6875 
Q 58.890625 46.6875 55.734375 42.140625 
Q 52.59375 37.59375 52.59375 28.90625 
L 52.59375 5.171875 
L 60.40625 5.171875 
L 60.40625 0 
L 35.796875 0 
L 35.796875 5.171875 
L 43.609375 5.171875 
L 43.609375 32.328125 
Q 43.609375 40.09375 41.265625 43.390625 
Q 38.921875 46.6875 33.5 46.6875 
Q 27.484375 46.6875 24.328125 42.140625 
Q 21.1875 37.59375 21.1875 28.90625 
L 21.1875 5.171875 
L 29 5.171875 
L 29 0 
L 4.109375 0 
L 4.109375 5.171875 
L 12.203125 5.171875 
L 12.203125 46.78125 
L 3.609375 46.78125 
L 3.609375 51.90625 
L 21.1875 51.90625 
L 21.1875 42.671875 
Q 23.6875 47.859375 27.53125 50.59375 
Q 31.390625 53.328125 36.28125 53.328125 
Q 42.328125 53.328125 46.375 50.3125 
Q 50.4375 47.3125 51.8125 41.796875 
z
" id="DejaVuSerif-109"/>
        <path d="M 39.796875 16.3125 
L 39.796875 27.296875 
L 28.21875 27.296875 
Q 21.53125 27.296875 18.25 24.40625 
Q 14.984375 21.53125 14.984375 15.578125 
Q 14.984375 10.15625 18.296875 6.984375 
Q 21.625 3.8125 27.296875 3.8125 
Q 32.90625 3.8125 36.34375 7.28125 
Q 39.796875 10.75 39.796875 16.3125 
z
M 48.78125 32.421875 
L 48.78125 5.171875 
L 56.78125 5.171875 
L 56.78125 0 
L 39.796875 0 
L 39.796875 5.609375 
Q 36.8125 2 32.90625 0.28125 
Q 29 -1.421875 23.78125 -1.421875 
Q 15.140625 -1.421875 10.0625 3.171875 
Q 4.984375 7.765625 4.984375 15.578125 
Q 4.984375 23.640625 10.796875 28.078125 
Q 16.609375 32.515625 27.203125 32.515625 
L 39.796875 32.515625 
L 39.796875 36.078125 
Q 39.796875 42 36.203125 45.234375 
Q 32.625 48.484375 26.125 48.484375 
Q 20.75 48.484375 17.578125 46.046875 
Q 14.40625 43.609375 13.625 38.8125 
L 8.984375 38.8125 
L 8.984375 49.3125 
Q 13.671875 51.3125 18.09375 52.3125 
Q 22.515625 53.328125 26.703125 53.328125 
Q 37.5 53.328125 43.140625 47.96875 
Q 48.78125 42.625 48.78125 32.421875 
z
" id="DejaVuSerif-97"/>
        <path d="M 43.015625 63.71875 
L 38.28125 63.71875 
Q 38.234375 67.390625 36.203125 69.28125 
Q 34.1875 71.1875 30.328125 71.1875 
Q 25.296875 71.1875 23.234375 68.421875 
Q 21.1875 65.671875 21.1875 58.59375 
L 21.1875 51.90625 
L 35.6875 51.90625 
L 35.6875 46.6875 
L 21.1875 46.6875 
L 21.1875 5.171875 
L 32.71875 5.171875 
L 32.71875 0 
L 3.609375 0 
L 3.609375 5.171875 
L 12.203125 5.171875 
L 12.203125 46.6875 
L 3.609375 46.6875 
L 3.609375 51.90625 
L 12.203125 51.90625 
L 12.203125 58.40625 
Q 12.203125 67.09375 16.71875 71.53125 
Q 21.234375 75.984375 29.984375 75.984375 
Q 33.25 75.984375 36.515625 75.390625 
Q 39.796875 74.8125 43.015625 73.578125 
z
" id="DejaVuSerif-102"/>
        <path d="M 20.515625 5.171875 
L 29 5.171875 
L 29 0 
L 2.875 0 
L 2.875 5.171875 
L 11.53125 5.171875 
L 11.53125 70.796875 
L 2.875 70.796875 
L 2.875 75.984375 
L 20.515625 75.984375 
z
" id="DejaVuSerif-108"/>
        <path d="M 35.40625 51.90625 
L 52.203125 51.90625 
L 52.203125 5.171875 
L 60.6875 5.171875 
L 60.6875 0 
L 43.21875 0 
L 43.21875 9.1875 
Q 40.71875 4 36.765625 1.28125 
Q 32.8125 -1.421875 27.59375 -1.421875 
Q 18.953125 -1.421875 14.875 3.484375 
Q 10.796875 8.40625 10.796875 18.890625 
L 10.796875 46.6875 
L 2.6875 46.6875 
L 2.6875 51.90625 
L 19.828125 51.90625 
L 19.828125 21.6875 
Q 19.828125 12.203125 22.140625 8.6875 
Q 24.46875 5.171875 30.421875 5.171875 
Q 36.671875 5.171875 39.9375 9.765625 
Q 43.21875 14.359375 43.21875 23.09375 
L 43.21875 46.6875 
L 35.40625 46.6875 
z
" id="DejaVuSerif-117"/>
        <path d="M 4.109375 0 
L 4.109375 5.171875 
L 12.203125 5.171875 
L 12.203125 46.6875 
L 3.609375 46.6875 
L 3.609375 51.90625 
L 21.1875 51.90625 
L 21.1875 42.671875 
Q 23.6875 47.953125 27.65625 50.640625 
Q 31.640625 53.328125 36.921875 53.328125 
Q 45.515625 53.328125 49.5625 48.390625 
Q 53.609375 43.453125 53.609375 33.015625 
L 53.609375 5.171875 
L 61.625 5.171875 
L 61.625 0 
L 36.8125 0 
L 36.8125 5.171875 
L 44.578125 5.171875 
L 44.578125 30.171875 
Q 44.578125 39.703125 42.234375 43.234375 
Q 39.890625 46.78125 33.984375 46.78125 
Q 27.734375 46.78125 24.453125 42.203125 
Q 21.1875 37.640625 21.1875 28.90625 
L 21.1875 5.171875 
L 29 5.171875 
L 29 0 
z
" id="DejaVuSerif-110"/>
        <path d="M 7.078125 -15.578125 
L 7.078125 -10.796875 
Q 14.59375 -5.609375 17.890625 3.78125 
Q 21.1875 13.1875 21.1875 30.171875 
Q 21.1875 47.21875 17.890625 56.609375 
Q 14.59375 66.015625 7.078125 71.1875 
L 7.078125 75.984375 
Q 19 70.65625 25.046875 59.109375 
Q 31.109375 47.5625 31.109375 30.171875 
Q 31.109375 12.84375 25.046875 1.296875 
Q 19 -10.25 7.078125 -15.578125 
z
" id="DejaVuSerif-41"/>
       </defs>
       <use xlink:href="#DejaVuSerif-40"/>
       <use x="39.013672" xlink:href="#DejaVuSerif-109"/>
       <use x="133.837891" xlink:href="#DejaVuSerif-111"/>
       <use x="194.042969" xlink:href="#DejaVuSerif-115"/>
       <use x="245.361328" xlink:href="#DejaVuSerif-116"/>
       <use x="285.546875" xlink:href="#DejaVuSerif-32"/>
       <use x="317.333984" xlink:href="#DejaVuSerif-97"/>
       <use x="376.953125" xlink:href="#DejaVuSerif-102"/>
       <use x="413.964844" xlink:href="#DejaVuSerif-102"/>
       <use x="450.976562" xlink:href="#DejaVuSerif-108"/>
       <use x="482.958984" xlink:href="#DejaVuSerif-117"/>
       <use x="547.363281" xlink:href="#DejaVuSerif-101"/>
       <use x="606.542969" xlink:href="#DejaVuSerif-110"/>
       <use x="670.947266" xlink:href="#DejaVuSerif-116"/>
       <use x="711.132812" xlink:href="#DejaVuSerif-41"/>
      </g>
     </g>
    </g>
    <g id="xtick_2">
     <g id="line2d_2">
      <path clip-path="url(#pb9d4274ecd)" d="M 169.677153 253.366125 
L 169.677153 35.926125 
" style="fill:none;stroke:#ffffff;stroke-linecap:round;stroke-width:0.8;"/>
     </g>
     <g id="text_2">
      <!-- Between 25% and 50% -->
      <g style="fill:#262626;" transform="translate(130.29241 348.410863)rotate(-45)scale(0.1 -0.1)">
       <defs>
        <path d="M 24.703125 5.171875 
L 39.3125 5.171875 
Q 48.09375 5.171875 52.140625 8.984375 
Q 56.203125 12.796875 56.203125 21.09375 
Q 56.203125 29.34375 52.171875 33.125 
Q 48.140625 36.921875 39.3125 36.921875 
L 24.703125 36.921875 
z
M 24.703125 42.09375 
L 37.109375 42.09375 
Q 45.125 42.09375 48.796875 45.171875 
Q 52.484375 48.25 52.484375 54.890625 
Q 52.484375 61.578125 48.796875 64.625 
Q 45.125 67.671875 37.109375 67.671875 
L 24.703125 67.671875 
z
M 5.515625 0 
L 5.515625 5.171875 
L 14.796875 5.171875 
L 14.796875 67.671875 
L 5.515625 67.671875 
L 5.515625 72.90625 
L 41.5 72.90625 
Q 52.546875 72.90625 58.125 68.390625 
Q 63.71875 63.875 63.71875 54.890625 
Q 63.71875 48.390625 59.828125 44.53125 
Q 55.953125 40.671875 48.484375 39.796875 
Q 57.765625 38.625 62.578125 33.859375 
Q 67.390625 29.109375 67.390625 21.09375 
Q 67.390625 10.25 60.546875 5.125 
Q 53.71875 0 39.203125 0 
z
" id="DejaVuSerif-66"/>
        <path d="M 52.484375 5.171875 
L 61.078125 5.171875 
L 61.078125 0 
L 43.5 0 
L 43.5 8.109375 
Q 40.875 3.21875 36.796875 0.890625 
Q 32.71875 -1.421875 26.703125 -1.421875 
Q 17.140625 -1.421875 11.0625 6.171875 
Q 4.984375 13.765625 4.984375 25.984375 
Q 4.984375 38.1875 11.03125 45.75 
Q 17.09375 53.328125 26.703125 53.328125 
Q 32.71875 53.328125 36.796875 51 
Q 40.875 48.6875 43.5 43.796875 
L 43.5 70.796875 
L 35.015625 70.796875 
L 35.015625 75.984375 
L 52.484375 75.984375 
z
M 43.5 23.390625 
L 43.5 28.515625 
Q 43.5 37.84375 39.90625 42.765625 
Q 36.328125 47.703125 29.5 47.703125 
Q 22.5625 47.703125 19.015625 42.234375 
Q 15.484375 36.765625 15.484375 25.984375 
Q 15.484375 15.234375 19.015625 9.71875 
Q 22.5625 4.203125 29.5 4.203125 
Q 36.328125 4.203125 39.90625 9.109375 
Q 43.5 14.015625 43.5 23.390625 
z
" id="DejaVuSerif-100"/>
        <path d="M 31.78125 3.421875 
Q 39.265625 3.421875 42.96875 11.625 
Q 46.6875 19.828125 46.6875 36.375 
Q 46.6875 52.984375 42.96875 61.1875 
Q 39.265625 69.390625 31.78125 69.390625 
Q 24.3125 69.390625 20.59375 61.1875 
Q 16.890625 52.984375 16.890625 36.375 
Q 16.890625 19.828125 20.59375 11.625 
Q 24.3125 3.421875 31.78125 3.421875 
z
M 31.78125 -1.421875 
Q 19.921875 -1.421875 13.25 8.53125 
Q 6.59375 18.5 6.59375 36.375 
Q 6.59375 54.296875 13.25 64.25 
Q 19.921875 74.21875 31.78125 74.21875 
Q 43.703125 74.21875 50.34375 64.25 
Q 56.984375 54.296875 56.984375 36.375 
Q 56.984375 18.5 50.34375 8.53125 
Q 43.703125 -1.421875 31.78125 -1.421875 
z
" id="DejaVuSerif-48"/>
       </defs>
       <use xlink:href="#DejaVuSerif-66"/>
       <use x="73.486328" xlink:href="#DejaVuSerif-101"/>
       <use x="132.666016" xlink:href="#DejaVuSerif-116"/>
       <use x="172.851562" xlink:href="#DejaVuSerif-119"/>
       <use x="258.447266" xlink:href="#DejaVuSerif-101"/>
       <use x="317.626953" xlink:href="#DejaVuSerif-101"/>
       <use x="376.806641" xlink:href="#DejaVuSerif-110"/>
       <use x="441.210938" xlink:href="#DejaVuSerif-32"/>
       <use x="472.998047" xlink:href="#DejaVuSerif-50"/>
       <use x="536.621094" xlink:href="#DejaVuSerif-53"/>
       <use x="600.244141" xlink:href="#DejaVuSerif-37"/>
       <use x="695.263672" xlink:href="#DejaVuSerif-32"/>
       <use x="727.050781" xlink:href="#DejaVuSerif-97"/>
       <use x="786.669922" xlink:href="#DejaVuSerif-110"/>
       <use x="851.074219" xlink:href="#DejaVuSerif-100"/>
       <use x="915.087891" xlink:href="#DejaVuSerif-32"/>
       <use x="946.875" xlink:href="#DejaVuSerif-53"/>
       <use x="1010.498047" xlink:href="#DejaVuSerif-48"/>
       <use x="1074.121094" xlink:href="#DejaVuSerif-37"/>
      </g>
     </g>
    </g>
    <g id="xtick_3">
     <g id="line2d_3">
      <path clip-path="url(#pb9d4274ecd)" d="M 249.772847 253.366125 
L 249.772847 35.926125 
" style="fill:none;stroke:#ffffff;stroke-linecap:round;stroke-width:0.8;"/>
     </g>
     <g id="text_3">
      <!-- Between 50% and 75% -->
      <g style="fill:#262626;" transform="translate(210.388104 348.410863)rotate(-45)scale(0.1 -0.1)">
       <defs>
        <path d="M 56.390625 67.921875 
L 27.875 0 
L 20.609375 0 
L 47.796875 64.890625 
L 14.109375 64.890625 
L 14.109375 55.90625 
L 8.40625 55.90625 
L 8.40625 72.90625 
L 56.390625 72.90625 
z
" id="DejaVuSerif-55"/>
       </defs>
       <use xlink:href="#DejaVuSerif-66"/>
       <use x="73.486328" xlink:href="#DejaVuSerif-101"/>
       <use x="132.666016" xlink:href="#DejaVuSerif-116"/>
       <use x="172.851562" xlink:href="#DejaVuSerif-119"/>
       <use x="258.447266" xlink:href="#DejaVuSerif-101"/>
       <use x="317.626953" xlink:href="#DejaVuSerif-101"/>
       <use x="376.806641" xlink:href="#DejaVuSerif-110"/>
       <use x="441.210938" xlink:href="#DejaVuSerif-32"/>
       <use x="472.998047" xlink:href="#DejaVuSerif-53"/>
       <use x="536.621094" xlink:href="#DejaVuSerif-48"/>
       <use x="600.244141" xlink:href="#DejaVuSerif-37"/>
       <use x="695.263672" xlink:href="#DejaVuSerif-32"/>
       <use x="727.050781" xlink:href="#DejaVuSerif-97"/>
       <use x="786.669922" xlink:href="#DejaVuSerif-110"/>
       <use x="851.074219" xlink:href="#DejaVuSerif-100"/>
       <use x="915.087891" xlink:href="#DejaVuSerif-32"/>
       <use x="946.875" xlink:href="#DejaVuSerif-55"/>
       <use x="1010.498047" xlink:href="#DejaVuSerif-53"/>
       <use x="1074.121094" xlink:href="#DejaVuSerif-37"/>
      </g>
     </g>
    </g>
    <g id="xtick_4">
     <g id="line2d_4">
      <path clip-path="url(#pb9d4274ecd)" d="M 329.868541 253.366125 
L 329.868541 35.926125 
" style="fill:none;stroke:#ffffff;stroke-linecap:round;stroke-width:0.8;"/>
     </g>
     <g id="text_4">
      <!-- Highest 25%  -->
      <g style="fill:#262626;" transform="translate(303.572676 320.675152)rotate(-45)scale(0.1 -0.1)">
       <defs>
        <path d="M 5.515625 0 
L 5.515625 5.171875 
L 14.796875 5.171875 
L 14.796875 67.671875 
L 5.515625 67.671875 
L 5.515625 72.90625 
L 33.984375 72.90625 
L 33.984375 67.671875 
L 24.703125 67.671875 
L 24.703125 42.484375 
L 62.5 42.484375 
L 62.5 67.671875 
L 53.21875 67.671875 
L 53.21875 72.90625 
L 81.6875 72.90625 
L 81.6875 67.671875 
L 72.40625 67.671875 
L 72.40625 5.171875 
L 81.6875 5.171875 
L 81.6875 0 
L 53.21875 0 
L 53.21875 5.171875 
L 62.5 5.171875 
L 62.5 36.53125 
L 24.703125 36.53125 
L 24.703125 5.171875 
L 33.984375 5.171875 
L 33.984375 0 
z
" id="DejaVuSerif-72"/>
        <path d="M 9.71875 68.015625 
Q 9.71875 70.265625 11.34375 71.921875 
Q 12.984375 73.578125 15.28125 73.578125 
Q 17.53125 73.578125 19.15625 71.921875 
Q 20.796875 70.265625 20.796875 68.015625 
Q 20.796875 65.71875 19.1875 64.109375 
Q 17.578125 62.5 15.28125 62.5 
Q 12.984375 62.5 11.34375 64.109375 
Q 9.71875 65.71875 9.71875 68.015625 
z
M 21.1875 5.171875 
L 29.6875 5.171875 
L 29.6875 0 
L 3.609375 0 
L 3.609375 5.171875 
L 12.203125 5.171875 
L 12.203125 46.6875 
L 3.609375 46.6875 
L 3.609375 51.90625 
L 21.1875 51.90625 
z
" id="DejaVuSerif-105"/>
        <path d="M 52.484375 46.6875 
L 52.484375 1.125 
Q 52.484375 -10.0625 46.328125 -16.140625 
Q 40.1875 -22.21875 28.8125 -22.21875 
Q 23.6875 -22.21875 19 -21.28125 
Q 14.3125 -20.359375 10.015625 -18.5 
L 10.015625 -7.625 
L 14.703125 -7.625 
Q 15.578125 -12.703125 18.84375 -15.046875 
Q 22.125 -17.390625 28.21875 -17.390625 
Q 36.140625 -17.390625 39.8125 -12.921875 
Q 43.5 -8.453125 43.5 1.125 
L 43.5 8.109375 
Q 40.875 3.21875 36.796875 0.890625 
Q 32.71875 -1.421875 26.703125 -1.421875 
Q 17.140625 -1.421875 11.0625 6.171875 
Q 4.984375 13.765625 4.984375 25.984375 
Q 4.984375 38.1875 11.03125 45.75 
Q 17.09375 53.328125 26.703125 53.328125 
Q 32.71875 53.328125 36.796875 51 
Q 40.875 48.6875 43.5 43.796875 
L 43.5 51.90625 
L 61.078125 51.90625 
L 61.078125 46.6875 
z
M 43.5 28.515625 
Q 43.5 37.84375 39.90625 42.765625 
Q 36.328125 47.703125 29.5 47.703125 
Q 22.5625 47.703125 19.015625 42.234375 
Q 15.484375 36.765625 15.484375 25.984375 
Q 15.484375 15.234375 19.015625 9.71875 
Q 22.5625 4.203125 29.5 4.203125 
Q 36.328125 4.203125 39.90625 9.109375 
Q 43.5 14.015625 43.5 23.390625 
z
" id="DejaVuSerif-103"/>
        <path d="M 4.109375 0 
L 4.109375 5.171875 
L 12.203125 5.171875 
L 12.203125 70.796875 
L 3.609375 70.796875 
L 3.609375 75.984375 
L 21.1875 75.984375 
L 21.1875 42.671875 
Q 23.6875 47.953125 27.65625 50.640625 
Q 31.640625 53.328125 36.921875 53.328125 
Q 45.515625 53.328125 49.5625 48.390625 
Q 53.609375 43.453125 53.609375 33.015625 
L 53.609375 5.171875 
L 61.625 5.171875 
L 61.625 0 
L 36.8125 0 
L 36.8125 5.171875 
L 44.578125 5.171875 
L 44.578125 30.171875 
Q 44.578125 39.703125 42.25 43.1875 
Q 39.9375 46.6875 33.984375 46.6875 
Q 27.734375 46.6875 24.453125 42.140625 
Q 21.1875 37.59375 21.1875 28.90625 
L 21.1875 5.171875 
L 29 5.171875 
L 29 0 
z
" id="DejaVuSerif-104"/>
       </defs>
       <use xlink:href="#DejaVuSerif-72"/>
       <use x="87.207031" xlink:href="#DejaVuSerif-105"/>
       <use x="119.189453" xlink:href="#DejaVuSerif-103"/>
       <use x="183.203125" xlink:href="#DejaVuSerif-104"/>
       <use x="247.607422" xlink:href="#DejaVuSerif-101"/>
       <use x="306.787109" xlink:href="#DejaVuSerif-115"/>
       <use x="358.105469" xlink:href="#DejaVuSerif-116"/>
       <use x="398.291016" xlink:href="#DejaVuSerif-32"/>
       <use x="430.078125" xlink:href="#DejaVuSerif-50"/>
       <use x="493.701172" xlink:href="#DejaVuSerif-53"/>
       <use x="557.324219" xlink:href="#DejaVuSerif-37"/>
       <use x="652.34375" xlink:href="#DejaVuSerif-32"/>
      </g>
      <!-- (highest poverty) -->
      <g style="fill:#262626;" transform="translate(305.030089 335.25492)rotate(-45)scale(0.1 -0.1)">
       <defs>
        <path d="M 20.515625 28.515625 
L 20.515625 23.390625 
Q 20.515625 14.015625 24.09375 9.109375 
Q 27.6875 4.203125 34.515625 4.203125 
Q 41.40625 4.203125 44.9375 9.71875 
Q 48.484375 15.234375 48.484375 25.984375 
Q 48.484375 36.765625 44.9375 42.234375 
Q 41.40625 47.703125 34.515625 47.703125 
Q 27.6875 47.703125 24.09375 42.765625 
Q 20.515625 37.84375 20.515625 28.515625 
z
M 11.53125 46.6875 
L 2.875 46.6875 
L 2.875 51.90625 
L 20.515625 51.90625 
L 20.515625 43.796875 
Q 23.140625 48.6875 27.21875 51 
Q 31.296875 53.328125 37.3125 53.328125 
Q 46.875 53.328125 52.921875 45.75 
Q 58.984375 38.1875 58.984375 25.984375 
Q 58.984375 13.765625 52.921875 6.171875 
Q 46.875 -1.421875 37.3125 -1.421875 
Q 31.296875 -1.421875 27.21875 0.890625 
Q 23.140625 3.21875 20.515625 8.109375 
L 20.515625 -15.578125 
L 29 -15.578125 
L 29 -20.796875 
L 2.875 -20.796875 
L 2.875 -15.578125 
L 11.53125 -15.578125 
z
" id="DejaVuSerif-112"/>
        <path d="M 24.703125 0 
L 5.609375 46.6875 
L -0.296875 46.6875 
L -0.296875 51.90625 
L 23.578125 51.90625 
L 23.578125 46.6875 
L 15.28125 46.6875 
L 29.890625 10.984375 
L 44.484375 46.6875 
L 36.71875 46.6875 
L 36.71875 51.90625 
L 56.203125 51.90625 
L 56.203125 46.6875 
L 50.390625 46.6875 
L 31.296875 0 
z
" id="DejaVuSerif-118"/>
        <path d="M 47.796875 52 
L 47.796875 39.015625 
L 42.625 39.015625 
Q 42.390625 42.875 40.484375 44.78125 
Q 38.578125 46.6875 34.90625 46.6875 
Q 28.265625 46.6875 24.71875 42.09375 
Q 21.1875 37.5 21.1875 28.90625 
L 21.1875 5.171875 
L 31.59375 5.171875 
L 31.59375 0 
L 4.109375 0 
L 4.109375 5.171875 
L 12.203125 5.171875 
L 12.203125 46.78125 
L 3.609375 46.78125 
L 3.609375 51.90625 
L 21.1875 51.90625 
L 21.1875 42.671875 
Q 23.828125 48.09375 27.96875 50.703125 
Q 32.125 53.328125 38.09375 53.328125 
Q 40.28125 53.328125 42.703125 52.984375 
Q 45.125 52.640625 47.796875 52 
z
" id="DejaVuSerif-114"/>
        <path d="M 21.578125 -9.515625 
L 25 -0.875 
L 5.609375 46.6875 
L -0.296875 46.6875 
L -0.296875 51.90625 
L 23.578125 51.90625 
L 23.578125 46.6875 
L 15.28125 46.6875 
L 29.890625 10.984375 
L 44.484375 46.6875 
L 36.71875 46.6875 
L 36.71875 51.90625 
L 56.203125 51.90625 
L 56.203125 46.6875 
L 50.390625 46.6875 
L 26.609375 -11.71875 
Q 24.171875 -17.78125 21.1875 -20 
Q 18.21875 -22.21875 12.796875 -22.21875 
Q 10.5 -22.21875 8.078125 -21.828125 
Q 5.671875 -21.4375 3.21875 -20.703125 
L 3.21875 -10.796875 
L 7.8125 -10.796875 
Q 8.109375 -14.109375 9.5 -15.546875 
Q 10.890625 -17 13.8125 -17 
Q 16.5 -17 18.140625 -15.5 
Q 19.78125 -14.015625 21.578125 -9.515625 
z
" id="DejaVuSerif-121"/>
       </defs>
       <use xlink:href="#DejaVuSerif-40"/>
       <use x="39.013672" xlink:href="#DejaVuSerif-104"/>
       <use x="103.417969" xlink:href="#DejaVuSerif-105"/>
       <use x="135.400391" xlink:href="#DejaVuSerif-103"/>
       <use x="199.414062" xlink:href="#DejaVuSerif-104"/>
       <use x="263.818359" xlink:href="#DejaVuSerif-101"/>
       <use x="322.998047" xlink:href="#DejaVuSerif-115"/>
       <use x="374.316406" xlink:href="#DejaVuSerif-116"/>
       <use x="414.501953" xlink:href="#DejaVuSerif-32"/>
       <use x="446.289062" xlink:href="#DejaVuSerif-112"/>
       <use x="510.302734" xlink:href="#DejaVuSerif-111"/>
       <use x="570.507812" xlink:href="#DejaVuSerif-118"/>
       <use x="627.001953" xlink:href="#DejaVuSerif-101"/>
       <use x="686.181641" xlink:href="#DejaVuSerif-114"/>
       <use x="733.984375" xlink:href="#DejaVuSerif-116"/>
       <use x="774.169922" xlink:href="#DejaVuSerif-121"/>
       <use x="830.664062" xlink:href="#DejaVuSerif-41"/>
      </g>
     </g>
    </g>
   </g>
   <g id="matplotlib.axis_2">
    <g id="ytick_1">
     <g id="line2d_5">
      <path clip-path="url(#pb9d4274ecd)" d="M 42.325 253.366125 
L 377.125 253.366125 
" style="fill:none;stroke:#ffffff;stroke-linecap:round;stroke-width:0.8;"/>
     </g>
     <g id="text_5">
      <!-- 0 -->
      <g style="fill:#262626;" transform="translate(28.9625 257.165344)scale(0.1 -0.1)">
       <use xlink:href="#DejaVuSerif-48"/>
      </g>
     </g>
    </g>
    <g id="ytick_2">
     <g id="line2d_6">
      <path clip-path="url(#pb9d4274ecd)" d="M 42.325 222.283589 
L 377.125 222.283589 
" style="fill:none;stroke:#ffffff;stroke-linecap:round;stroke-width:0.8;"/>
     </g>
     <g id="text_6">
      <!-- 2 -->
      <g style="fill:#262626;" transform="translate(28.9625 226.082808)scale(0.1 -0.1)">
       <use xlink:href="#DejaVuSerif-50"/>
      </g>
     </g>
    </g>
    <g id="ytick_3">
     <g id="line2d_7">
      <path clip-path="url(#pb9d4274ecd)" d="M 42.325 191.201053 
L 377.125 191.201053 
" style="fill:none;stroke:#ffffff;stroke-linecap:round;stroke-width:0.8;"/>
     </g>
     <g id="text_7">
      <!-- 4 -->
      <g style="fill:#262626;" transform="translate(28.9625 195.000272)scale(0.1 -0.1)">
       <defs>
        <path d="M 34.90625 24.703125 
L 34.90625 63.484375 
L 10.015625 24.703125 
z
M 56.390625 0 
L 23.1875 0 
L 23.1875 5.171875 
L 34.90625 5.171875 
L 34.90625 19.484375 
L 3.078125 19.484375 
L 3.078125 24.8125 
L 35.015625 74.21875 
L 44.671875 74.21875 
L 44.671875 24.703125 
L 58.59375 24.703125 
L 58.59375 19.484375 
L 44.671875 19.484375 
L 44.671875 5.171875 
L 56.390625 5.171875 
z
" id="DejaVuSerif-52"/>
       </defs>
       <use xlink:href="#DejaVuSerif-52"/>
      </g>
     </g>
    </g>
    <g id="ytick_4">
     <g id="line2d_8">
      <path clip-path="url(#pb9d4274ecd)" d="M 42.325 160.118517 
L 377.125 160.118517 
" style="fill:none;stroke:#ffffff;stroke-linecap:round;stroke-width:0.8;"/>
     </g>
     <g id="text_8">
      <!-- 6 -->
      <g style="fill:#262626;" transform="translate(28.9625 163.917736)scale(0.1 -0.1)">
       <defs>
        <path d="M 32.71875 3.421875 
Q 39.59375 3.421875 43.296875 8.46875 
Q 47.015625 13.53125 47.015625 23 
Q 47.015625 32.46875 43.296875 37.515625 
Q 39.59375 42.578125 32.71875 42.578125 
Q 25.734375 42.578125 22.0625 37.6875 
Q 18.40625 32.8125 18.40625 23.578125 
Q 18.40625 13.875 22.109375 8.640625 
Q 25.828125 3.421875 32.71875 3.421875 
z
M 16.796875 40.140625 
Q 20.125 43.796875 24.3125 45.59375 
Q 28.515625 47.40625 33.796875 47.40625 
Q 44.671875 47.40625 51 40.859375 
Q 57.328125 34.328125 57.328125 23 
Q 57.328125 11.921875 50.515625 5.25 
Q 43.703125 -1.421875 32.328125 -1.421875 
Q 19.96875 -1.421875 13.328125 7.78125 
Q 6.6875 17 6.6875 34.078125 
Q 6.6875 53.21875 14.546875 63.71875 
Q 22.40625 74.21875 36.71875 74.21875 
Q 40.578125 74.21875 44.828125 73.484375 
Q 49.078125 72.75 53.515625 71.296875 
L 53.515625 59.28125 
L 48 59.28125 
Q 47.40625 64.203125 44.234375 66.796875 
Q 41.0625 69.390625 35.6875 69.390625 
Q 26.21875 69.390625 21.578125 62.203125 
Q 16.9375 55.03125 16.796875 40.140625 
z
" id="DejaVuSerif-54"/>
       </defs>
       <use xlink:href="#DejaVuSerif-54"/>
      </g>
     </g>
    </g>
    <g id="ytick_5">
     <g id="line2d_9">
      <path clip-path="url(#pb9d4274ecd)" d="M 42.325 129.035981 
L 377.125 129.035981 
" style="fill:none;stroke:#ffffff;stroke-linecap:round;stroke-width:0.8;"/>
     </g>
     <g id="text_9">
      <!-- 8 -->
      <g style="fill:#262626;" transform="translate(28.9625 132.8352)scale(0.1 -0.1)">
       <defs>
        <path d="M 46.578125 19.921875 
Q 46.578125 27.734375 42.6875 32.046875 
Q 38.8125 36.375 31.78125 36.375 
Q 24.75 36.375 20.875 32.046875 
Q 17 27.734375 17 19.921875 
Q 17 12.0625 20.875 7.734375 
Q 24.75 3.421875 31.78125 3.421875 
Q 38.8125 3.421875 42.6875 7.734375 
Q 46.578125 12.0625 46.578125 19.921875 
z
M 44.578125 55.328125 
Q 44.578125 61.96875 41.203125 65.671875 
Q 37.84375 69.390625 31.78125 69.390625 
Q 25.78125 69.390625 22.390625 65.671875 
Q 19 61.96875 19 55.328125 
Q 19 48.640625 22.390625 44.921875 
Q 25.78125 41.21875 31.78125 41.21875 
Q 37.84375 41.21875 41.203125 44.921875 
Q 44.578125 48.640625 44.578125 55.328125 
z
M 39.3125 38.8125 
Q 47.609375 37.703125 52.25 32.6875 
Q 56.890625 27.6875 56.890625 19.921875 
Q 56.890625 9.671875 50.390625 4.125 
Q 43.890625 -1.421875 31.78125 -1.421875 
Q 19.734375 -1.421875 13.203125 4.125 
Q 6.6875 9.671875 6.6875 19.921875 
Q 6.6875 27.6875 11.328125 32.6875 
Q 15.96875 37.703125 24.3125 38.8125 
Q 16.9375 40.140625 13 44.40625 
Q 9.078125 48.6875 9.078125 55.328125 
Q 9.078125 64.109375 15.125 69.15625 
Q 21.1875 74.21875 31.78125 74.21875 
Q 42.390625 74.21875 48.4375 69.15625 
Q 54.5 64.109375 54.5 55.328125 
Q 54.5 48.6875 50.5625 44.40625 
Q 46.625 40.140625 39.3125 38.8125 
z
" id="DejaVuSerif-56"/>
       </defs>
       <use xlink:href="#DejaVuSerif-56"/>
      </g>
     </g>
    </g>
    <g id="ytick_6">
     <g id="line2d_10">
      <path clip-path="url(#pb9d4274ecd)" d="M 42.325 97.953445 
L 377.125 97.953445 
" style="fill:none;stroke:#ffffff;stroke-linecap:round;stroke-width:0.8;"/>
     </g>
     <g id="text_10">
      <!-- 10 -->
      <g style="fill:#262626;" transform="translate(22.6 101.752664)scale(0.1 -0.1)">
       <defs>
        <path d="M 14.203125 0 
L 14.203125 5.171875 
L 26.90625 5.171875 
L 26.90625 65.828125 
L 12.203125 56.296875 
L 12.203125 62.703125 
L 29.984375 74.21875 
L 36.71875 74.21875 
L 36.71875 5.171875 
L 49.421875 5.171875 
L 49.421875 0 
z
" id="DejaVuSerif-49"/>
       </defs>
       <use xlink:href="#DejaVuSerif-49"/>
       <use x="63.623047" xlink:href="#DejaVuSerif-48"/>
      </g>
     </g>
    </g>
    <g id="ytick_7">
     <g id="line2d_11">
      <path clip-path="url(#pb9d4274ecd)" d="M 42.325 66.870909 
L 377.125 66.870909 
" style="fill:none;stroke:#ffffff;stroke-linecap:round;stroke-width:0.8;"/>
     </g>
     <g id="text_11">
      <!-- 12 -->
      <g style="fill:#262626;" transform="translate(22.6 70.670128)scale(0.1 -0.1)">
       <use xlink:href="#DejaVuSerif-49"/>
       <use x="63.623047" xlink:href="#DejaVuSerif-50"/>
      </g>
     </g>
    </g>
    <g id="text_12">
     <!-- Average PM2.5 concentration ($\mu g$/$m^3$) -->
     <g style="fill:#262626;" transform="translate(16.3 241.446125)rotate(-90)scale(0.1 -0.1)">
      <defs>
       <path d="M 20.015625 26.421875 
L 46.78125 26.421875 
L 33.40625 61.078125 
z
M -0.59375 0 
L -0.59375 5.171875 
L 5.8125 5.171875 
L 31.78125 72.90625 
L 39.984375 72.90625 
L 66.015625 5.171875 
L 73.1875 5.171875 
L 73.1875 0 
L 46.6875 0 
L 46.6875 5.171875 
L 54.78125 5.171875 
L 48.6875 21.1875 
L 18.015625 21.1875 
L 11.921875 5.171875 
L 19.921875 5.171875 
L 19.921875 0 
z
" id="DejaVuSerif-65"/>
       <path d="M 24.703125 37.109375 
L 37.59375 37.109375 
Q 44.875 37.109375 48.671875 41.03125 
Q 52.484375 44.96875 52.484375 52.390625 
Q 52.484375 59.859375 48.671875 63.765625 
Q 44.875 67.671875 37.59375 67.671875 
L 24.703125 67.671875 
z
M 5.515625 0 
L 5.515625 5.171875 
L 14.796875 5.171875 
L 14.796875 67.671875 
L 5.515625 67.671875 
L 5.515625 72.90625 
L 39.984375 72.90625 
Q 50.921875 72.90625 57.3125 67.359375 
Q 63.71875 61.8125 63.71875 52.390625 
Q 63.71875 43.015625 57.3125 37.453125 
Q 50.921875 31.890625 39.984375 31.890625 
L 24.703125 31.890625 
L 24.703125 5.171875 
L 35.984375 5.171875 
L 35.984375 0 
z
" id="DejaVuSerif-80"/>
       <path d="M 5.515625 0 
L 5.515625 5.171875 
L 14.796875 5.171875 
L 14.796875 67.671875 
L 4.984375 67.671875 
L 4.984375 72.90625 
L 26.21875 72.90625 
L 51.8125 21 
L 77.390625 72.90625 
L 97.3125 72.90625 
L 97.3125 67.671875 
L 87.59375 67.671875 
L 87.59375 5.171875 
L 96.921875 5.171875 
L 96.921875 0 
L 68.40625 0 
L 68.40625 5.171875 
L 77.6875 5.171875 
L 77.6875 61.53125 
L 52.6875 10.6875 
L 45.796875 10.6875 
L 20.796875 61.53125 
L 20.796875 5.171875 
L 30.078125 5.171875 
L 30.078125 0 
z
" id="DejaVuSerif-77"/>
       <path d="M 9.421875 5.078125 
Q 9.421875 7.8125 11.28125 9.71875 
Q 13.140625 11.625 15.921875 11.625 
Q 18.609375 11.625 20.5 9.71875 
Q 22.40625 7.8125 22.40625 5.078125 
Q 22.40625 2.390625 20.5 0.484375 
Q 18.609375 -1.421875 15.921875 -1.421875 
Q 13.140625 -1.421875 11.28125 0.453125 
Q 9.421875 2.34375 9.421875 5.078125 
z
" id="DejaVuSerif-46"/>
       <path d="M 51.421875 15.578125 
Q 49.515625 7.28125 44.09375 2.921875 
Q 38.671875 -1.421875 30.078125 -1.421875 
Q 18.75 -1.421875 11.859375 6.078125 
Q 4.984375 13.578125 4.984375 25.984375 
Q 4.984375 38.421875 11.859375 45.875 
Q 18.75 53.328125 30.078125 53.328125 
Q 35.015625 53.328125 39.890625 52.171875 
Q 44.78125 51.03125 49.703125 48.6875 
L 49.703125 35.40625 
L 44.484375 35.40625 
Q 43.453125 42.234375 40.015625 45.359375 
Q 36.578125 48.484375 30.171875 48.484375 
Q 22.90625 48.484375 19.1875 42.84375 
Q 15.484375 37.203125 15.484375 25.984375 
Q 15.484375 14.75 19.171875 9.078125 
Q 22.859375 3.421875 30.171875 3.421875 
Q 35.984375 3.421875 39.453125 6.4375 
Q 42.921875 9.46875 44.1875 15.578125 
z
" id="DejaVuSerif-99"/>
       <path d="M -1.3125 -20.796875 
L 13.375 54.6875 
L 22.40625 54.6875 
L 15.765625 20.65625 
Q 15.578125 19.625 15.421875 18.359375 
Q 15.28125 17.09375 15.28125 15.828125 
Q 15.28125 11.28125 18.140625 8.828125 
Q 21 6.390625 26.3125 6.390625 
Q 33.546875 6.390625 37.984375 10.484375 
Q 42.4375 14.59375 44 22.796875 
L 50.203125 54.6875 
L 59.1875 54.6875 
L 51.03125 12.640625 
Q 50.828125 11.71875 50.75 11.03125 
Q 50.6875 10.359375 50.6875 9.8125 
Q 50.6875 8.296875 51.296875 7.59375 
Q 51.90625 6.890625 53.21875 6.890625 
Q 53.71875 6.890625 54.5625 7.125 
Q 55.421875 7.375 56.984375 8.015625 
L 55.609375 0.78125 
Q 53.46875 -0.296875 51.515625 -0.859375 
Q 49.5625 -1.421875 47.703125 -1.421875 
Q 44.484375 -1.421875 42.65625 0.625 
Q 40.828125 2.6875 40.828125 6.296875 
Q 38.09375 2.390625 34.296875 0.484375 
Q 30.515625 -1.421875 25.390625 -1.421875 
Q 20.84375 -1.421875 17.453125 0.671875 
Q 14.0625 2.78125 12.984375 6.203125 
L 7.71875 -20.796875 
z
" id="DejaVuSans-Oblique-956"/>
       <path d="M 59.625 54.6875 
L 50.296875 6.78125 
Q 47.609375 -7.125 40.015625 -13.953125 
Q 32.421875 -20.796875 19.578125 -20.796875 
Q 14.84375 -20.796875 10.78125 -20.09375 
Q 6.734375 -19.390625 3.21875 -17.921875 
L 4.890625 -9.1875 
Q 8.203125 -11.328125 11.90625 -12.34375 
Q 15.625 -13.375 19.828125 -13.375 
Q 28.375 -13.375 33.859375 -8.703125 
Q 39.359375 -4.046875 41.109375 4.6875 
L 41.890625 8.796875 
Q 38.140625 4.5 33.15625 2.25 
Q 28.171875 0 22.40625 0 
Q 14.109375 0 9.34375 5.484375 
Q 4.59375 10.984375 4.59375 20.609375 
Q 4.59375 28.171875 7.46875 35.421875 
Q 10.359375 42.671875 15.578125 48.296875 
Q 19.046875 52 23.65625 54 
Q 28.265625 56 33.296875 56 
Q 38.8125 56 42.90625 53.4375 
Q 47.015625 50.875 49.03125 46.1875 
L 50.59375 54.6875 
z
M 46.09375 34.625 
Q 46.09375 41.265625 42.96875 44.875 
Q 39.84375 48.484375 34.078125 48.484375 
Q 30.515625 48.484375 27.296875 47.0625 
Q 24.078125 45.65625 21.78125 43.109375 
Q 18.0625 38.921875 15.984375 33.234375 
Q 13.921875 27.546875 13.921875 21.484375 
Q 13.921875 14.75 17.0625 11.125 
Q 20.21875 7.515625 26.125 7.515625 
Q 34.671875 7.515625 40.375 15.25 
Q 46.09375 23 46.09375 34.625 
z
" id="DejaVuSans-Oblique-103"/>
       <path d="M 25.875 72.90625 
L 33.6875 72.90625 
L 7.8125 -9.28125 
L 0 -9.28125 
z
" id="DejaVuSerif-47"/>
       <path d="M 89.796875 33.015625 
L 83.40625 0 
L 74.421875 0 
L 80.71875 32.71875 
Q 81.109375 34.8125 81.296875 36.328125 
Q 81.5 37.84375 81.5 38.921875 
Q 81.5 43.3125 79.046875 45.75 
Q 76.609375 48.1875 72.21875 48.1875 
Q 65.671875 48.1875 60.546875 43.28125 
Q 55.421875 38.375 53.90625 30.515625 
L 47.90625 0 
L 38.921875 0 
L 45.3125 32.71875 
Q 45.703125 34.515625 45.890625 36.046875 
Q 46.09375 37.59375 46.09375 38.8125 
Q 46.09375 43.265625 43.65625 45.71875 
Q 41.21875 48.1875 36.921875 48.1875 
Q 30.28125 48.1875 25.140625 43.28125 
Q 20.015625 38.375 18.5 30.515625 
L 12.5 0 
L 3.515625 0 
L 14.203125 54.6875 
L 23.1875 54.6875 
L 21.484375 46.1875 
Q 25.140625 50.984375 30.046875 53.484375 
Q 34.96875 56 40.578125 56 
Q 46.53125 56 50.359375 52.875 
Q 54.203125 49.75 54.984375 44.1875 
Q 59.078125 49.953125 64.46875 52.96875 
Q 69.875 56 75.875 56 
Q 82.90625 56 86.734375 51.953125 
Q 90.578125 47.90625 90.578125 40.484375 
Q 90.578125 38.875 90.375 36.9375 
Q 90.1875 35.015625 89.796875 33.015625 
z
" id="DejaVuSans-Oblique-109"/>
       <path d="M 40.578125 39.3125 
Q 47.65625 37.796875 51.625 33 
Q 55.609375 28.21875 55.609375 21.1875 
Q 55.609375 10.40625 48.1875 4.484375 
Q 40.765625 -1.421875 27.09375 -1.421875 
Q 22.515625 -1.421875 17.65625 -0.515625 
Q 12.796875 0.390625 7.625 2.203125 
L 7.625 11.71875 
Q 11.71875 9.328125 16.59375 8.109375 
Q 21.484375 6.890625 26.8125 6.890625 
Q 36.078125 6.890625 40.9375 10.546875 
Q 45.796875 14.203125 45.796875 21.1875 
Q 45.796875 27.640625 41.28125 31.265625 
Q 36.765625 34.90625 28.71875 34.90625 
L 20.21875 34.90625 
L 20.21875 43.015625 
L 29.109375 43.015625 
Q 36.375 43.015625 40.234375 45.921875 
Q 44.09375 48.828125 44.09375 54.296875 
Q 44.09375 59.90625 40.109375 62.90625 
Q 36.140625 65.921875 28.71875 65.921875 
Q 24.65625 65.921875 20.015625 65.03125 
Q 15.375 64.15625 9.8125 62.3125 
L 9.8125 71.09375 
Q 15.4375 72.65625 20.34375 73.4375 
Q 25.25 74.21875 29.59375 74.21875 
Q 40.828125 74.21875 47.359375 69.109375 
Q 53.90625 64.015625 53.90625 55.328125 
Q 53.90625 49.265625 50.4375 45.09375 
Q 46.96875 40.921875 40.578125 39.3125 
z
" id="DejaVuSans-51"/>
      </defs>
      <use transform="translate(0 0.765625)" xlink:href="#DejaVuSerif-65"/>
      <use transform="translate(72.216797 0.765625)" xlink:href="#DejaVuSerif-118"/>
      <use transform="translate(128.710938 0.765625)" xlink:href="#DejaVuSerif-101"/>
      <use transform="translate(187.890625 0.765625)" xlink:href="#DejaVuSerif-114"/>
      <use transform="translate(235.693359 0.765625)" xlink:href="#DejaVuSerif-97"/>
      <use transform="translate(295.3125 0.765625)" xlink:href="#DejaVuSerif-103"/>
      <use transform="translate(359.326172 0.765625)" xlink:href="#DejaVuSerif-101"/>
      <use transform="translate(418.505859 0.765625)" xlink:href="#DejaVuSerif-32"/>
      <use transform="translate(450.292969 0.765625)" xlink:href="#DejaVuSerif-80"/>
      <use transform="translate(517.578125 0.765625)" xlink:href="#DejaVuSerif-77"/>
      <use transform="translate(619.970703 0.765625)" xlink:href="#DejaVuSerif-50"/>
      <use transform="translate(683.59375 0.765625)" xlink:href="#DejaVuSerif-46"/>
      <use transform="translate(715.380859 0.765625)" xlink:href="#DejaVuSerif-53"/>
      <use transform="translate(779.003906 0.765625)" xlink:href="#DejaVuSerif-32"/>
      <use transform="translate(810.791016 0.765625)" xlink:href="#DejaVuSerif-99"/>
      <use transform="translate(866.796875 0.765625)" xlink:href="#DejaVuSerif-111"/>
      <use transform="translate(927.001953 0.765625)" xlink:href="#DejaVuSerif-110"/>
      <use transform="translate(991.40625 0.765625)" xlink:href="#DejaVuSerif-99"/>
      <use transform="translate(1047.412109 0.765625)" xlink:href="#DejaVuSerif-101"/>
      <use transform="translate(1106.591797 0.765625)" xlink:href="#DejaVuSerif-110"/>
      <use transform="translate(1170.996094 0.765625)" xlink:href="#DejaVuSerif-116"/>
      <use transform="translate(1211.181641 0.765625)" xlink:href="#DejaVuSerif-114"/>
      <use transform="translate(1258.984375 0.765625)" xlink:href="#DejaVuSerif-97"/>
      <use transform="translate(1318.603516 0.765625)" xlink:href="#DejaVuSerif-116"/>
      <use transform="translate(1358.789062 0.765625)" xlink:href="#DejaVuSerif-105"/>
      <use transform="translate(1390.771484 0.765625)" xlink:href="#DejaVuSerif-111"/>
      <use transform="translate(1450.976562 0.765625)" xlink:href="#DejaVuSerif-110"/>
      <use transform="translate(1515.380859 0.765625)" xlink:href="#DejaVuSerif-32"/>
      <use transform="translate(1547.167969 0.765625)" xlink:href="#DejaVuSerif-40"/>
      <use transform="translate(1586.181641 0.765625)" xlink:href="#DejaVuSans-Oblique-956"/>
      <use transform="translate(1649.804688 0.765625)" xlink:href="#DejaVuSans-Oblique-103"/>
      <use transform="translate(1713.28125 0.765625)" xlink:href="#DejaVuSerif-47"/>
      <use transform="translate(1746.972656 0.765625)" xlink:href="#DejaVuSans-Oblique-109"/>
      <use transform="translate(1849.034661 39.046875)scale(0.7)" xlink:href="#DejaVuSans-51"/>
      <use transform="translate(1896.305169 0.765625)" xlink:href="#DejaVuSerif-41"/>
     </g>
    </g>
   </g>
   <g id="patch_3">
    <path clip-path="url(#pb9d4274ecd)" d="M 57.543182 253.366125 
L 121.619737 253.366125 
L 121.619737 75.657541 
L 57.543182 75.657541 
z
" style="fill:#dda0dd;opacity:0.8;stroke:#ffffff;stroke-linejoin:miter;"/>
   </g>
   <g id="patch_4">
    <path clip-path="url(#pb9d4274ecd)" d="M 137.638876 253.366125 
L 201.715431 253.366125 
L 201.715431 70.713702 
L 137.638876 70.713702 
z
" style="fill:#dda0dd;opacity:0.8;stroke:#ffffff;stroke-linejoin:miter;"/>
   </g>
   <g id="patch_5">
    <path clip-path="url(#pb9d4274ecd)" d="M 217.734569 253.366125 
L 281.811124 253.366125 
L 281.811124 68.623806 
L 217.734569 68.623806 
z
" style="fill:#dda0dd;opacity:0.8;stroke:#ffffff;stroke-linejoin:miter;"/>
   </g>
   <g id="patch_6">
    <path clip-path="url(#pb9d4274ecd)" d="M 297.830263 253.366125 
L 361.906818 253.366125 
L 361.906818 67.945778 
L 297.830263 67.945778 
z
" style="fill:#dda0dd;opacity:0.8;stroke:#ffffff;stroke-linejoin:miter;"/>
   </g>
   <g id="LineCollection_1">
    <path clip-path="url(#pb9d4274ecd)" d="M 89.581459 93.275634 
L 89.581459 58.039448 
" style="fill:none;stroke:#000000;"/>
    <path clip-path="url(#pb9d4274ecd)" d="M 169.677153 87.743702 
L 169.677153 53.683703 
" style="fill:none;stroke:#000000;"/>
    <path clip-path="url(#pb9d4274ecd)" d="M 249.772847 85.945284 
L 249.772847 51.302328 
" style="fill:none;stroke:#000000;"/>
    <path clip-path="url(#pb9d4274ecd)" d="M 329.868541 89.611145 
L 329.868541 46.280411 
" style="fill:none;stroke:#000000;"/>
   </g>
   <g id="line2d_12">
    <defs>
     <path d="M 2 0 
L -2 -0 
" id="m36095f1219" style="stroke:#000000;stroke-width:0.5;"/>
    </defs>
    <g clip-path="url(#pb9d4274ecd)">
     <use style="stroke:#000000;stroke-width:0.5;" x="89.581459" xlink:href="#m36095f1219" y="93.275634"/>
     <use style="stroke:#000000;stroke-width:0.5;" x="169.677153" xlink:href="#m36095f1219" y="87.743702"/>
     <use style="stroke:#000000;stroke-width:0.5;" x="249.772847" xlink:href="#m36095f1219" y="85.945284"/>
     <use style="stroke:#000000;stroke-width:0.5;" x="329.868541" xlink:href="#m36095f1219" y="89.611145"/>
    </g>
   </g>
   <g id="line2d_13">
    <g clip-path="url(#pb9d4274ecd)">
     <use style="stroke:#000000;stroke-width:0.5;" x="89.581459" xlink:href="#m36095f1219" y="58.039448"/>
     <use style="stroke:#000000;stroke-width:0.5;" x="169.677153" xlink:href="#m36095f1219" y="53.683703"/>
     <use style="stroke:#000000;stroke-width:0.5;" x="249.772847" xlink:href="#m36095f1219" y="51.302328"/>
     <use style="stroke:#000000;stroke-width:0.5;" x="329.868541" xlink:href="#m36095f1219" y="46.280411"/>
    </g>
   </g>
   <g id="patch_7">
    <path d="M 42.325 253.366125 
L 42.325 35.926125 
" style="fill:none;stroke:#ffffff;stroke-linecap:square;stroke-linejoin:miter;stroke-width:0.8;"/>
   </g>
   <g id="patch_8">
    <path d="M 377.125 253.366125 
L 377.125 35.926125 
" style="fill:none;stroke:#ffffff;stroke-linecap:square;stroke-linejoin:miter;stroke-width:0.8;"/>
   </g>
   <g id="patch_9">
    <path d="M 42.325 253.366125 
L 377.125 253.366125 
" style="fill:none;stroke:#ffffff;stroke-linecap:square;stroke-linejoin:miter;stroke-width:0.8;"/>
   </g>
   <g id="patch_10">
    <path d="M 42.325 35.926125 
L 377.125 35.926125 
" style="fill:none;stroke:#ffffff;stroke-linecap:square;stroke-linejoin:miter;stroke-width:0.8;"/>
   </g>
   <g id="text_13">
    <!-- 11.434 -->
    <g style="fill:#262626;" transform="translate(73.562321 122.281345)scale(0.1 -0.1)">
     <defs>
      <path d="M 9.71875 69.828125 
Q 15.4375 71.96875 20.671875 73.09375 
Q 25.921875 74.21875 30.515625 74.21875 
Q 41.21875 74.21875 47.21875 69.59375 
Q 53.21875 64.984375 53.21875 56.78125 
Q 53.21875 50.203125 49.0625 45.78125 
Q 44.921875 41.359375 37.3125 39.796875 
Q 46.296875 38.53125 51.25 33.28125 
Q 56.203125 28.03125 56.203125 19.671875 
Q 56.203125 9.46875 49.34375 4.015625 
Q 42.484375 -1.421875 29.59375 -1.421875 
Q 23.875 -1.421875 18.421875 -0.1875 
Q 12.984375 1.03125 7.625 3.515625 
L 7.625 17.671875 
L 13.09375 17.671875 
Q 13.578125 10.640625 17.828125 7.03125 
Q 22.078125 3.421875 29.78125 3.421875 
Q 37.25 3.421875 41.578125 7.734375 
Q 45.90625 12.0625 45.90625 19.578125 
Q 45.90625 28.171875 41.453125 32.59375 
Q 37.015625 37.015625 28.421875 37.015625 
L 23.78125 37.015625 
L 23.78125 42 
L 26.21875 42 
Q 34.765625 42 39.03125 45.53125 
Q 43.3125 49.078125 43.3125 56.203125 
Q 43.3125 62.59375 39.796875 65.984375 
Q 36.28125 69.390625 29.6875 69.390625 
Q 23.09375 69.390625 19.453125 66.265625 
Q 15.828125 63.140625 15.1875 56.984375 
L 9.71875 56.984375 
z
" id="DejaVuSerif-51"/>
     </defs>
     <use xlink:href="#DejaVuSerif-49"/>
     <use x="63.623047" xlink:href="#DejaVuSerif-49"/>
     <use x="127.246094" xlink:href="#DejaVuSerif-46"/>
     <use x="159.033203" xlink:href="#DejaVuSerif-52"/>
     <use x="222.65625" xlink:href="#DejaVuSerif-51"/>
     <use x="286.279297" xlink:href="#DejaVuSerif-52"/>
    </g>
   </g>
   <g id="text_14">
    <!-- 11.752 -->
    <g style="fill:#262626;" transform="translate(153.658014 117.337506)scale(0.1 -0.1)">
     <use xlink:href="#DejaVuSerif-49"/>
     <use x="63.623047" xlink:href="#DejaVuSerif-49"/>
     <use x="127.246094" xlink:href="#DejaVuSerif-46"/>
     <use x="159.033203" xlink:href="#DejaVuSerif-55"/>
     <use x="222.65625" xlink:href="#DejaVuSerif-53"/>
     <use x="286.279297" xlink:href="#DejaVuSerif-50"/>
    </g>
   </g>
   <g id="text_15">
    <!-- 11.887 -->
    <g style="fill:#262626;" transform="translate(233.753708 115.24761)scale(0.1 -0.1)">
     <use xlink:href="#DejaVuSerif-49"/>
     <use x="63.623047" xlink:href="#DejaVuSerif-49"/>
     <use x="127.246094" xlink:href="#DejaVuSerif-46"/>
     <use x="159.033203" xlink:href="#DejaVuSerif-56"/>
     <use x="222.65625" xlink:href="#DejaVuSerif-56"/>
     <use x="286.279297" xlink:href="#DejaVuSerif-55"/>
    </g>
   </g>
   <g id="text_16">
    <!-- 11.93 -->
    <g style="fill:#262626;" transform="translate(313.849402 114.569582)scale(0.1 -0.1)">
     <defs>
      <path d="M 46.78125 32.671875 
Q 43.5 29 39.25 27.1875 
Q 35.015625 25.390625 29.6875 25.390625 
Q 18.84375 25.390625 12.5625 31.9375 
Q 6.296875 38.484375 6.296875 49.8125 
Q 6.296875 60.890625 13.109375 67.546875 
Q 19.921875 74.21875 31.296875 74.21875 
Q 43.65625 74.21875 50.265625 65.015625 
Q 56.890625 55.8125 56.890625 38.71875 
Q 56.890625 19.578125 49.015625 9.078125 
Q 41.15625 -1.421875 26.90625 -1.421875 
Q 23.046875 -1.421875 18.796875 -0.6875 
Q 14.546875 0.046875 10.109375 1.515625 
L 10.109375 13.625 
L 15.578125 13.625 
Q 16.21875 8.6875 19.390625 6.046875 
Q 22.5625 3.421875 27.875 3.421875 
Q 37.359375 3.421875 41.984375 10.5625 
Q 46.625 17.71875 46.78125 32.671875 
z
M 30.90625 69.390625 
Q 23.96875 69.390625 20.28125 64.328125 
Q 16.609375 59.28125 16.609375 49.8125 
Q 16.609375 40.328125 20.28125 35.25 
Q 23.96875 30.171875 30.90625 30.171875 
Q 37.84375 30.171875 41.53125 35.078125 
Q 45.21875 39.984375 45.21875 49.21875 
Q 45.21875 58.9375 41.5 64.15625 
Q 37.796875 69.390625 30.90625 69.390625 
z
" id="DejaVuSerif-57"/>
     </defs>
     <use xlink:href="#DejaVuSerif-49"/>
     <use x="63.623047" xlink:href="#DejaVuSerif-49"/>
     <use x="127.246094" xlink:href="#DejaVuSerif-46"/>
     <use x="159.033203" xlink:href="#DejaVuSerif-57"/>
     <use x="222.65625" xlink:href="#DejaVuSerif-51"/>
    </g>
   </g>
   <g id="text_17">
    <!-- Neighborhoods Classified By Percentage Below  -->
    <g style="fill:#262626;" transform="translate(62.970625 16.318125)scale(0.12 -0.12)">
     <defs>
      <path d="M 4.890625 0 
L 4.890625 5.171875 
L 14.703125 5.171875 
L 14.703125 67.671875 
L 4.890625 67.671875 
L 4.890625 72.90625 
L 23.578125 72.90625 
L 67.28125 15.375 
L 67.28125 67.671875 
L 57.515625 67.671875 
L 57.515625 72.90625 
L 83.109375 72.90625 
L 83.109375 67.671875 
L 73.296875 67.671875 
L 73.296875 -1.421875 
L 67.390625 -1.421875 
L 20.703125 60.015625 
L 20.703125 5.171875 
L 30.515625 5.171875 
L 30.515625 0 
z
" id="DejaVuSerif-78"/>
      <path d="M 11.53125 5.171875 
L 11.53125 70.796875 
L 2.875 70.796875 
L 2.875 75.984375 
L 20.515625 75.984375 
L 20.515625 43.796875 
Q 23.140625 48.6875 27.21875 51 
Q 31.296875 53.328125 37.3125 53.328125 
Q 46.875 53.328125 52.921875 45.75 
Q 58.984375 38.1875 58.984375 25.984375 
Q 58.984375 13.765625 52.921875 6.171875 
Q 46.875 -1.421875 37.3125 -1.421875 
Q 31.296875 -1.421875 27.21875 0.890625 
Q 23.140625 3.21875 20.515625 8.109375 
L 20.515625 0 
L 2.875 0 
L 2.875 5.171875 
z
M 20.515625 23.390625 
Q 20.515625 14.015625 24.09375 9.109375 
Q 27.6875 4.203125 34.515625 4.203125 
Q 41.40625 4.203125 44.9375 9.71875 
Q 48.484375 15.234375 48.484375 25.984375 
Q 48.484375 36.765625 44.9375 42.234375 
Q 41.40625 47.703125 34.515625 47.703125 
Q 27.6875 47.703125 24.09375 42.765625 
Q 20.515625 37.84375 20.515625 28.515625 
z
" id="DejaVuSerif-98"/>
      <path d="M 70.515625 19.28125 
Q 67.28125 9.078125 59.6875 3.828125 
Q 52.09375 -1.421875 40.484375 -1.421875 
Q 33.34375 -1.421875 27.234375 1.015625 
Q 21.140625 3.46875 16.40625 8.203125 
Q 10.9375 13.671875 8.265625 20.625 
Q 5.609375 27.59375 5.609375 36.375 
Q 5.609375 53.375 15.421875 63.796875 
Q 25.25 74.21875 41.3125 74.21875 
Q 47.265625 74.21875 54 72.65625 
Q 60.75 71.09375 68.5 67.921875 
L 68.5 51.125 
L 62.984375 51.125 
Q 61.1875 60.296875 55.734375 64.640625 
Q 50.296875 69 40.484375 69 
Q 28.8125 69 22.796875 60.71875 
Q 16.796875 52.4375 16.796875 36.375 
Q 16.796875 20.359375 22.796875 12.078125 
Q 28.8125 3.8125 40.484375 3.8125 
Q 48.640625 3.8125 53.90625 7.6875 
Q 59.1875 11.578125 61.53125 19.28125 
z
" id="DejaVuSerif-67"/>
     </defs>
     <use xlink:href="#DejaVuSerif-78"/>
     <use x="87.5" xlink:href="#DejaVuSerif-101"/>
     <use x="146.679688" xlink:href="#DejaVuSerif-105"/>
     <use x="178.662109" xlink:href="#DejaVuSerif-103"/>
     <use x="242.675781" xlink:href="#DejaVuSerif-104"/>
     <use x="307.080078" xlink:href="#DejaVuSerif-98"/>
     <use x="371.09375" xlink:href="#DejaVuSerif-111"/>
     <use x="431.298828" xlink:href="#DejaVuSerif-114"/>
     <use x="479.101562" xlink:href="#DejaVuSerif-104"/>
     <use x="543.505859" xlink:href="#DejaVuSerif-111"/>
     <use x="603.710938" xlink:href="#DejaVuSerif-111"/>
     <use x="663.916016" xlink:href="#DejaVuSerif-100"/>
     <use x="727.929688" xlink:href="#DejaVuSerif-115"/>
     <use x="779.248047" xlink:href="#DejaVuSerif-32"/>
     <use x="811.035156" xlink:href="#DejaVuSerif-67"/>
     <use x="887.548828" xlink:href="#DejaVuSerif-108"/>
     <use x="919.53125" xlink:href="#DejaVuSerif-97"/>
     <use x="979.150391" xlink:href="#DejaVuSerif-115"/>
     <use x="1030.46875" xlink:href="#DejaVuSerif-115"/>
     <use x="1081.787109" xlink:href="#DejaVuSerif-105"/>
     <use x="1113.769531" xlink:href="#DejaVuSerif-102"/>
     <use x="1150.78125" xlink:href="#DejaVuSerif-105"/>
     <use x="1182.763672" xlink:href="#DejaVuSerif-101"/>
     <use x="1241.943359" xlink:href="#DejaVuSerif-100"/>
     <use x="1305.957031" xlink:href="#DejaVuSerif-32"/>
     <use x="1337.744141" xlink:href="#DejaVuSerif-66"/>
     <use x="1411.230469" xlink:href="#DejaVuSerif-121"/>
     <use x="1467.724609" xlink:href="#DejaVuSerif-32"/>
     <use x="1499.511719" xlink:href="#DejaVuSerif-80"/>
     <use x="1562.296875" xlink:href="#DejaVuSerif-101"/>
     <use x="1621.476562" xlink:href="#DejaVuSerif-114"/>
     <use x="1669.279297" xlink:href="#DejaVuSerif-99"/>
     <use x="1725.285156" xlink:href="#DejaVuSerif-101"/>
     <use x="1784.464844" xlink:href="#DejaVuSerif-110"/>
     <use x="1848.869141" xlink:href="#DejaVuSerif-116"/>
     <use x="1889.054688" xlink:href="#DejaVuSerif-97"/>
     <use x="1948.673828" xlink:href="#DejaVuSerif-103"/>
     <use x="2012.6875" xlink:href="#DejaVuSerif-101"/>
     <use x="2071.867188" xlink:href="#DejaVuSerif-32"/>
     <use x="2103.654297" xlink:href="#DejaVuSerif-66"/>
     <use x="2177.140625" xlink:href="#DejaVuSerif-101"/>
     <use x="2236.320312" xlink:href="#DejaVuSerif-108"/>
     <use x="2268.302734" xlink:href="#DejaVuSerif-111"/>
     <use x="2328.507812" xlink:href="#DejaVuSerif-119"/>
     <use x="2414.103516" xlink:href="#DejaVuSerif-32"/>
    </g>
    <!--  Census's Poverty Threshold and Their Respective PM2.5 Levels -->
    <g style="fill:#262626;" transform="translate(14.2375 29.926125)scale(0.12 -0.12)">
     <defs>
      <path d="M 17.578125 72.90625 
L 17.578125 45.796875 
L 9.8125 45.796875 
L 9.8125 72.90625 
z
" id="DejaVuSerif-39"/>
      <path d="M 19.09375 0 
L 19.09375 5.171875 
L 28.421875 5.171875 
L 28.421875 67.09375 
L 6.984375 67.09375 
L 6.984375 55.71875 
L 0.984375 55.71875 
L 0.984375 72.90625 
L 65.71875 72.90625 
L 65.71875 55.71875 
L 59.71875 55.71875 
L 59.71875 67.09375 
L 38.28125 67.09375 
L 38.28125 5.171875 
L 47.609375 5.171875 
L 47.609375 0 
z
" id="DejaVuSerif-84"/>
      <path d="M 47.90625 36.1875 
Q 51.3125 35.25 53.78125 33.03125 
Q 56.25 30.8125 58.203125 26.8125 
L 68.796875 5.171875 
L 77.6875 5.171875 
L 77.6875 0 
L 60.5 0 
L 49.125 23.1875 
Q 45.84375 29.9375 43.109375 31.90625 
Q 40.375 33.890625 35.59375 33.890625 
L 24.703125 33.890625 
L 24.703125 5.171875 
L 35.015625 5.171875 
L 35.015625 0 
L 5.515625 0 
L 5.515625 5.171875 
L 14.796875 5.171875 
L 14.796875 67.671875 
L 5.515625 67.671875 
L 5.515625 72.90625 
L 42.484375 72.90625 
Q 53.125 72.90625 58.90625 67.828125 
Q 64.703125 62.75 64.703125 53.421875 
Q 64.703125 45.90625 60.46875 41.578125 
Q 56.25 37.25 47.90625 36.1875 
z
M 24.703125 39.109375 
L 39.109375 39.109375 
Q 46.484375 39.109375 50 42.59375 
Q 53.515625 46.09375 53.515625 53.421875 
Q 53.515625 60.75 50 64.203125 
Q 46.484375 67.671875 39.109375 67.671875 
L 24.703125 67.671875 
z
" id="DejaVuSerif-82"/>
     </defs>
     <use xlink:href="#DejaVuSerif-32"/>
     <use x="31.787109" xlink:href="#DejaVuSerif-67"/>
     <use x="108.300781" xlink:href="#DejaVuSerif-101"/>
     <use x="167.480469" xlink:href="#DejaVuSerif-110"/>
     <use x="231.884766" xlink:href="#DejaVuSerif-115"/>
     <use x="283.203125" xlink:href="#DejaVuSerif-117"/>
     <use x="347.607422" xlink:href="#DejaVuSerif-115"/>
     <use x="398.925781" xlink:href="#DejaVuSerif-39"/>
     <use x="426.416016" xlink:href="#DejaVuSerif-115"/>
     <use x="477.734375" xlink:href="#DejaVuSerif-32"/>
     <use x="509.521484" xlink:href="#DejaVuSerif-80"/>
     <use x="572.806641" xlink:href="#DejaVuSerif-111"/>
     <use x="633.011719" xlink:href="#DejaVuSerif-118"/>
     <use x="689.505859" xlink:href="#DejaVuSerif-101"/>
     <use x="748.685547" xlink:href="#DejaVuSerif-114"/>
     <use x="796.488281" xlink:href="#DejaVuSerif-116"/>
     <use x="836.673828" xlink:href="#DejaVuSerif-121"/>
     <use x="893.167969" xlink:href="#DejaVuSerif-32"/>
     <use x="924.955078" xlink:href="#DejaVuSerif-84"/>
     <use x="991.654297" xlink:href="#DejaVuSerif-104"/>
     <use x="1056.058594" xlink:href="#DejaVuSerif-114"/>
     <use x="1103.861328" xlink:href="#DejaVuSerif-101"/>
     <use x="1163.041016" xlink:href="#DejaVuSerif-115"/>
     <use x="1214.359375" xlink:href="#DejaVuSerif-104"/>
     <use x="1278.763672" xlink:href="#DejaVuSerif-111"/>
     <use x="1338.96875" xlink:href="#DejaVuSerif-108"/>
     <use x="1370.951172" xlink:href="#DejaVuSerif-100"/>
     <use x="1434.964844" xlink:href="#DejaVuSerif-32"/>
     <use x="1466.751953" xlink:href="#DejaVuSerif-97"/>
     <use x="1526.371094" xlink:href="#DejaVuSerif-110"/>
     <use x="1590.775391" xlink:href="#DejaVuSerif-100"/>
     <use x="1654.789062" xlink:href="#DejaVuSerif-32"/>
     <use x="1686.576172" xlink:href="#DejaVuSerif-84"/>
     <use x="1753.275391" xlink:href="#DejaVuSerif-104"/>
     <use x="1817.679688" xlink:href="#DejaVuSerif-101"/>
     <use x="1876.859375" xlink:href="#DejaVuSerif-105"/>
     <use x="1908.841797" xlink:href="#DejaVuSerif-114"/>
     <use x="1956.644531" xlink:href="#DejaVuSerif-32"/>
     <use x="1988.431641" xlink:href="#DejaVuSerif-82"/>
     <use x="2063.724609" xlink:href="#DejaVuSerif-101"/>
     <use x="2122.904297" xlink:href="#DejaVuSerif-115"/>
     <use x="2174.222656" xlink:href="#DejaVuSerif-112"/>
     <use x="2238.236328" xlink:href="#DejaVuSerif-101"/>
     <use x="2297.416016" xlink:href="#DejaVuSerif-99"/>
     <use x="2353.421875" xlink:href="#DejaVuSerif-116"/>
     <use x="2393.607422" xlink:href="#DejaVuSerif-105"/>
     <use x="2425.589844" xlink:href="#DejaVuSerif-118"/>
     <use x="2482.083984" xlink:href="#DejaVuSerif-101"/>
     <use x="2541.263672" xlink:href="#DejaVuSerif-32"/>
     <use x="2573.050781" xlink:href="#DejaVuSerif-80"/>
     <use x="2640.335938" xlink:href="#DejaVuSerif-77"/>
     <use x="2742.728516" xlink:href="#DejaVuSerif-50"/>
     <use x="2806.351562" xlink:href="#DejaVuSerif-46"/>
     <use x="2838.138672" xlink:href="#DejaVuSerif-53"/>
     <use x="2901.761719" xlink:href="#DejaVuSerif-32"/>
     <use x="2933.548828" xlink:href="#DejaVuSerif-76"/>
     <use x="2999.955078" xlink:href="#DejaVuSerif-101"/>
     <use x="3059.134766" xlink:href="#DejaVuSerif-118"/>
     <use x="3115.628906" xlink:href="#DejaVuSerif-101"/>
     <use x="3174.808594" xlink:href="#DejaVuSerif-108"/>
     <use x="3206.791016" xlink:href="#DejaVuSerif-115"/>
    </g>
   </g>
   <g id="legend_1">
    <g id="patch_11">
     <path d="M 387.473 73.424562 
L 715.313625 73.424562 
Q 717.313625 73.424562 717.313625 71.424562 
L 717.313625 42.926125 
Q 717.313625 40.926125 715.313625 40.926125 
L 387.473 40.926125 
Q 385.473 40.926125 385.473 42.926125 
L 385.473 71.424562 
Q 385.473 73.424562 387.473 73.424562 
z
" style="fill:#eaeaf2;opacity:0.8;stroke:#cccccc;stroke-linejoin:miter;"/>
    </g>
    <g id="LineCollection_2">
     <path d="M 399.473 54.024563 
L 399.473 44.024563 
" style="fill:none;stroke:#000000;"/>
    </g>
    <g id="line2d_14">
     <g>
      <use style="stroke:#000000;stroke-width:0.5;" x="399.473" xlink:href="#m36095f1219" y="54.024563"/>
     </g>
    </g>
    <g id="line2d_15">
     <g>
      <use style="stroke:#000000;stroke-width:0.5;" x="399.473" xlink:href="#m36095f1219" y="44.024563"/>
     </g>
    </g>
    <g id="text_18">
     <!-- Standard deviations -->
     <g style="fill:#262626;" transform="translate(417.473 52.524563)scale(0.1 -0.1)">
      <defs>
       <path d="M 9.28125 3.515625 
L 9.28125 20.125 
L 14.890625 20.0625 
Q 15.140625 11.765625 19.703125 7.78125 
Q 24.265625 3.8125 33.59375 3.8125 
Q 42.28125 3.8125 46.84375 7.25 
Q 51.421875 10.6875 51.421875 17.28125 
Q 51.421875 22.5625 48.65625 25.390625 
Q 45.90625 28.21875 37.015625 30.90625 
L 27.390625 33.796875 
Q 16.9375 36.96875 12.671875 41.703125 
Q 8.40625 46.4375 8.40625 54.6875 
Q 8.40625 63.96875 14.984375 69.09375 
Q 21.578125 74.21875 33.5 74.21875 
Q 38.578125 74.21875 44.625 73.109375 
Q 50.6875 72.015625 57.515625 69.921875 
L 57.515625 54.390625 
L 52 54.390625 
Q 51.171875 62.109375 46.84375 65.546875 
Q 42.53125 69 33.6875 69 
Q 25.984375 69 21.953125 65.84375 
Q 17.921875 62.703125 17.921875 56.6875 
Q 17.921875 51.46875 20.9375 48.484375 
Q 23.96875 45.515625 33.796875 42.578125 
L 42.828125 39.890625 
Q 52.734375 36.921875 56.953125 32.296875 
Q 61.1875 27.6875 61.1875 19.921875 
Q 61.1875 9.328125 54.390625 3.953125 
Q 47.609375 -1.421875 34.1875 -1.421875 
Q 28.171875 -1.421875 21.9375 -0.1875 
Q 15.71875 1.03125 9.28125 3.515625 
z
" id="DejaVuSerif-83"/>
      </defs>
      <use xlink:href="#DejaVuSerif-83"/>
      <use x="68.505859" xlink:href="#DejaVuSerif-116"/>
      <use x="108.691406" xlink:href="#DejaVuSerif-97"/>
      <use x="168.310547" xlink:href="#DejaVuSerif-110"/>
      <use x="232.714844" xlink:href="#DejaVuSerif-100"/>
      <use x="296.728516" xlink:href="#DejaVuSerif-97"/>
      <use x="356.347656" xlink:href="#DejaVuSerif-114"/>
      <use x="404.150391" xlink:href="#DejaVuSerif-100"/>
      <use x="468.164062" xlink:href="#DejaVuSerif-32"/>
      <use x="499.951172" xlink:href="#DejaVuSerif-100"/>
      <use x="563.964844" xlink:href="#DejaVuSerif-101"/>
      <use x="623.144531" xlink:href="#DejaVuSerif-118"/>
      <use x="679.638672" xlink:href="#DejaVuSerif-105"/>
      <use x="711.621094" xlink:href="#DejaVuSerif-97"/>
      <use x="771.240234" xlink:href="#DejaVuSerif-116"/>
      <use x="811.425781" xlink:href="#DejaVuSerif-105"/>
      <use x="843.408203" xlink:href="#DejaVuSerif-111"/>
      <use x="903.613281" xlink:href="#DejaVuSerif-110"/>
      <use x="968.017578" xlink:href="#DejaVuSerif-115"/>
     </g>
    </g>
    <g id="patch_12">
     <path d="M 389.473 67.202688 
L 409.473 67.202688 
L 409.473 60.202688 
L 389.473 60.202688 
z
" style="fill:#dda0dd;opacity:0.8;stroke:#ffffff;stroke-linejoin:miter;"/>
    </g>
    <g id="text_19">
     <!-- Average PM2.5 concentration (2009-2011 and 2012-2014) -->
     <g style="fill:#262626;" transform="translate(417.473 67.202688)scale(0.1 -0.1)">
      <defs>
       <path d="M 4.390625 30.609375 
L 29.390625 30.609375 
L 29.390625 23 
L 4.390625 23 
z
" id="DejaVuSerif-45"/>
      </defs>
      <use xlink:href="#DejaVuSerif-65"/>
      <use x="68.216797" xlink:href="#DejaVuSerif-118"/>
      <use x="124.710938" xlink:href="#DejaVuSerif-101"/>
      <use x="183.890625" xlink:href="#DejaVuSerif-114"/>
      <use x="231.693359" xlink:href="#DejaVuSerif-97"/>
      <use x="291.3125" xlink:href="#DejaVuSerif-103"/>
      <use x="355.326172" xlink:href="#DejaVuSerif-101"/>
      <use x="414.505859" xlink:href="#DejaVuSerif-32"/>
      <use x="446.292969" xlink:href="#DejaVuSerif-80"/>
      <use x="513.578125" xlink:href="#DejaVuSerif-77"/>
      <use x="615.970703" xlink:href="#DejaVuSerif-50"/>
      <use x="679.59375" xlink:href="#DejaVuSerif-46"/>
      <use x="711.380859" xlink:href="#DejaVuSerif-53"/>
      <use x="775.003906" xlink:href="#DejaVuSerif-32"/>
      <use x="806.791016" xlink:href="#DejaVuSerif-99"/>
      <use x="862.796875" xlink:href="#DejaVuSerif-111"/>
      <use x="923.001953" xlink:href="#DejaVuSerif-110"/>
      <use x="987.40625" xlink:href="#DejaVuSerif-99"/>
      <use x="1043.412109" xlink:href="#DejaVuSerif-101"/>
      <use x="1102.591797" xlink:href="#DejaVuSerif-110"/>
      <use x="1166.996094" xlink:href="#DejaVuSerif-116"/>
      <use x="1207.181641" xlink:href="#DejaVuSerif-114"/>
      <use x="1254.984375" xlink:href="#DejaVuSerif-97"/>
      <use x="1314.603516" xlink:href="#DejaVuSerif-116"/>
      <use x="1354.789062" xlink:href="#DejaVuSerif-105"/>
      <use x="1386.771484" xlink:href="#DejaVuSerif-111"/>
      <use x="1446.976562" xlink:href="#DejaVuSerif-110"/>
      <use x="1511.380859" xlink:href="#DejaVuSerif-32"/>
      <use x="1543.167969" xlink:href="#DejaVuSerif-40"/>
      <use x="1582.181641" xlink:href="#DejaVuSerif-50"/>
      <use x="1645.804688" xlink:href="#DejaVuSerif-48"/>
      <use x="1709.427734" xlink:href="#DejaVuSerif-48"/>
      <use x="1773.050781" xlink:href="#DejaVuSerif-57"/>
      <use x="1836.673828" xlink:href="#DejaVuSerif-45"/>
      <use x="1870.462891" xlink:href="#DejaVuSerif-50"/>
      <use x="1934.085938" xlink:href="#DejaVuSerif-48"/>
      <use x="1997.708984" xlink:href="#DejaVuSerif-49"/>
      <use x="2061.332031" xlink:href="#DejaVuSerif-49"/>
      <use x="2124.955078" xlink:href="#DejaVuSerif-32"/>
      <use x="2156.742188" xlink:href="#DejaVuSerif-97"/>
      <use x="2216.361328" xlink:href="#DejaVuSerif-110"/>
      <use x="2280.765625" xlink:href="#DejaVuSerif-100"/>
      <use x="2344.779297" xlink:href="#DejaVuSerif-32"/>
      <use x="2376.566406" xlink:href="#DejaVuSerif-50"/>
      <use x="2440.189453" xlink:href="#DejaVuSerif-48"/>
      <use x="2503.8125" xlink:href="#DejaVuSerif-49"/>
      <use x="2567.435547" xlink:href="#DejaVuSerif-50"/>
      <use x="2631.058594" xlink:href="#DejaVuSerif-45"/>
      <use x="2664.847656" xlink:href="#DejaVuSerif-50"/>
      <use x="2728.470703" xlink:href="#DejaVuSerif-48"/>
      <use x="2792.09375" xlink:href="#DejaVuSerif-49"/>
      <use x="2855.716797" xlink:href="#DejaVuSerif-52"/>
      <use x="2919.339844" xlink:href="#DejaVuSerif-41"/>
     </g>
    </g>
   </g>
  </g>
 </g>
 <defs>
  <clipPath id="pb9d4274ecd">
   <rect height="217.44" width="334.8" x="42.325" y="35.926125"/>
  </clipPath>
 </defs>
</svg>
